<svg xmlns="http://www.w3.org/2000/svg" width="33" height="32" fill="none" viewBox="0 0 33 32">
  <rect width="32" height="32" x=".5" fill="#A733FF" rx="4"/>
  <g clip-path="url(#a)">
    <g clip-path="url(#b)">
      <path fill="#fff" d="m23.707 12.933-8.025 8.025a1 1 0 0 1-1.413 0l-4.477-4.5a1 1 0 0 1 0-1.413l1.25-1.25a1 1 0 0 1 1.412 0L15 16.265l6.048-5.973a1 1 0 0 1 1.412 0l1.247 1.221a1.001 1.001 0 0 1 0 1.42Z"/>
    </g>
  </g>
  <defs>
    <clipPath id="a">
      <path fill="#fff" d="M8.5 8h16v16h-16z"/>
    </clipPath>
    <clipPath id="b">
      <path fill="#fff" d="M8.5 8h16v16h-16z"/>
    </clipPath>
  </defs>
</svg>
